<mxfile host="Electron" agent="Mozilla/5.0 (Windows NT 10.0; Win64; x64) AppleWebKit/537.36 (KHTML, like Gecko) draw.io/26.0.16 Chrome/132.0.6834.196 Electron/34.2.0 Safari/537.36" version="26.0.16">
  <diagram id="C5RBs43oDa-KdzZeNtuy" name="Page-1">
    <mxGraphModel dx="627" dy="565" grid="1" gridSize="10" guides="1" tooltips="1" connect="1" arrows="1" fold="1" page="1" pageScale="1" pageWidth="827" pageHeight="1169" math="0" shadow="0">
      <root>
        <mxCell id="WIyWlLk6GJQsqaUBKTNV-0" />
        <mxCell id="WIyWlLk6GJQsqaUBKTNV-1" parent="WIyWlLk6GJQsqaUBKTNV-0" />
        <mxCell id="wAh957lDMcKYDywiUFgo-8" value="cmd_cu" style="swimlane;whiteSpace=wrap;html=1;" vertex="1" parent="WIyWlLk6GJQsqaUBKTNV-1">
          <mxGeometry x="130" y="130" width="210" height="300" as="geometry" />
        </mxCell>
        <mxCell id="wAh957lDMcKYDywiUFgo-9" value="All State Change Depends On Clock" style="text;html=1;align=center;verticalAlign=middle;resizable=0;points=[];autosize=1;strokeColor=none;fillColor=none;" vertex="1" parent="wAh957lDMcKYDywiUFgo-8">
          <mxGeometry x="-5.5" y="270" width="220" height="30" as="geometry" />
        </mxCell>
        <mxCell id="wAh957lDMcKYDywiUFgo-12" value="" style="group" vertex="1" connectable="0" parent="wAh957lDMcKYDywiUFgo-8">
          <mxGeometry x="20" y="32" width="165" height="238" as="geometry" />
        </mxCell>
        <mxCell id="wAh957lDMcKYDywiUFgo-2" style="edgeStyle=orthogonalEdgeStyle;rounded=0;orthogonalLoop=1;jettySize=auto;html=1;" edge="1" parent="wAh957lDMcKYDywiUFgo-12" source="WIyWlLk6GJQsqaUBKTNV-3" target="WIyWlLk6GJQsqaUBKTNV-6">
          <mxGeometry relative="1" as="geometry" />
        </mxCell>
        <mxCell id="WIyWlLk6GJQsqaUBKTNV-3" value="LOW" style="rounded=1;whiteSpace=wrap;html=1;fontSize=12;glass=0;strokeWidth=1;shadow=0;" parent="wAh957lDMcKYDywiUFgo-12" vertex="1">
          <mxGeometry x="25" width="120" height="40" as="geometry" />
        </mxCell>
        <mxCell id="wAh957lDMcKYDywiUFgo-7" style="edgeStyle=orthogonalEdgeStyle;rounded=0;orthogonalLoop=1;jettySize=auto;html=1;entryX=0;entryY=0.5;entryDx=0;entryDy=0;" edge="1" parent="wAh957lDMcKYDywiUFgo-12" source="WIyWlLk6GJQsqaUBKTNV-6" target="WIyWlLk6GJQsqaUBKTNV-3">
          <mxGeometry relative="1" as="geometry">
            <Array as="points">
              <mxPoint y="88" />
              <mxPoint y="20" />
            </Array>
          </mxGeometry>
        </mxCell>
        <mxCell id="WIyWlLk6GJQsqaUBKTNV-6" value="cmd_reg&lt;div&gt;!=&lt;/div&gt;&lt;div&gt;cmd_char&lt;/div&gt;" style="rhombus;whiteSpace=wrap;html=1;shadow=0;fontFamily=Helvetica;fontSize=12;align=center;strokeWidth=1;spacing=6;spacingTop=-4;" parent="wAh957lDMcKYDywiUFgo-12" vertex="1">
          <mxGeometry x="20" y="58" width="130" height="60" as="geometry" />
        </mxCell>
        <mxCell id="wAh957lDMcKYDywiUFgo-14" value="cmd_next = cmd_char" style="whiteSpace=wrap;html=1;shadow=0;strokeWidth=1;spacing=6;spacingTop=-4;" vertex="1" parent="wAh957lDMcKYDywiUFgo-12">
          <mxGeometry x="18.75" y="138" width="132.5" height="32" as="geometry" />
        </mxCell>
        <mxCell id="wAh957lDMcKYDywiUFgo-15" value="" style="edgeStyle=orthogonalEdgeStyle;rounded=0;orthogonalLoop=1;jettySize=auto;html=1;" edge="1" parent="wAh957lDMcKYDywiUFgo-12" source="WIyWlLk6GJQsqaUBKTNV-6" target="wAh957lDMcKYDywiUFgo-14">
          <mxGeometry relative="1" as="geometry" />
        </mxCell>
        <mxCell id="wAh957lDMcKYDywiUFgo-3" value="HIGH" style="rounded=1;whiteSpace=wrap;html=1;shadow=0;strokeWidth=1;spacing=6;spacingTop=-4;" vertex="1" parent="wAh957lDMcKYDywiUFgo-12">
          <mxGeometry x="25" y="191" width="120" height="40" as="geometry" />
        </mxCell>
        <mxCell id="wAh957lDMcKYDywiUFgo-5" style="edgeStyle=orthogonalEdgeStyle;rounded=0;orthogonalLoop=1;jettySize=auto;html=1;entryX=1;entryY=0.5;entryDx=0;entryDy=0;" edge="1" parent="wAh957lDMcKYDywiUFgo-12" source="wAh957lDMcKYDywiUFgo-3" target="WIyWlLk6GJQsqaUBKTNV-3">
          <mxGeometry relative="1" as="geometry">
            <Array as="points">
              <mxPoint x="165" y="211" />
              <mxPoint x="165" y="20" />
            </Array>
          </mxGeometry>
        </mxCell>
        <mxCell id="wAh957lDMcKYDywiUFgo-16" style="edgeStyle=orthogonalEdgeStyle;rounded=0;orthogonalLoop=1;jettySize=auto;html=1;entryX=0.5;entryY=0;entryDx=0;entryDy=0;" edge="1" parent="wAh957lDMcKYDywiUFgo-12" source="wAh957lDMcKYDywiUFgo-14" target="wAh957lDMcKYDywiUFgo-3">
          <mxGeometry relative="1" as="geometry" />
        </mxCell>
      </root>
    </mxGraphModel>
  </diagram>
</mxfile>
